<svg width="4192" height="2297" viewBox="0 0 4192 2297" fill="none" xmlns="http://www.w3.org/2000/svg">
<g filter="url(#filter0_i_0_1)">
<path d="M0 57.7199C0 13.2073 50.1203 -12.8672 86.5698 12.6829L2028.97 1374.25C2047.65 1387.34 2072.49 1387.54 2091.38 1374.75L4106.16 10.1412C4142.68 -14.5953 4192 11.5684 4192 55.6793V2241C4192 2271.38 4167.38 2296 4137 2296H55C24.6244 2296 0 2271.38 0 2241V57.7199Z" fill="#504540" fill-opacity="0.41"/>
</g>
<path d="M70 227.984C70 183.813 119.441 157.662 155.953 182.521L2030.77 1458.99C2049.19 1471.52 2073.35 1471.71 2091.96 1459.47L4036.77 180.067C4073.34 156.008 4122 182.24 4122 226.016V2241C4122 2271.38 4097.38 2296 4067 2296H125C94.6243 2296 70 2271.38 70 2241V227.984Z" fill="#2D2A28" stroke="white" stroke-opacity="0.4" stroke-width="2" stroke-dasharray="40 40"/>
<g filter="url(#filter1_i_0_1)">
<path d="M2021.15 980.553C2041.42 963.948 2070.58 963.948 2090.85 980.553L3090.47 1799.45C3130.44 1832.2 3107.29 1897 3055.62 1897H1056.38C1004.71 1897 981.556 1832.2 1021.53 1799.45L2021.15 980.553Z" fill="#272423"/>
</g>
<path d="M2020.65 1039.54C2040.92 1022.94 2070.08 1022.94 2090.35 1039.54L2982.12 1769.95C3022.1 1802.69 2998.95 1867.5 2947.27 1867.5H1163.73C1112.05 1867.5 1088.9 1802.69 1128.88 1769.95L2020.65 1039.54Z" fill="#2D2A28" stroke="white" stroke-opacity="0.4" stroke-width="2" stroke-dasharray="40 40"/>
<defs>
<filter id="filter0_i_0_1" x="0" y="0.585938" width="4192" height="2299.41" filterUnits="userSpaceOnUse" color-interpolation-filters="sRGB">
<feFlood flood-opacity="0" result="BackgroundImageFix"/>
<feBlend mode="normal" in="SourceGraphic" in2="BackgroundImageFix" result="shape"/>
<feColorMatrix in="SourceAlpha" type="matrix" values="0 0 0 0 0 0 0 0 0 0 0 0 0 0 0 0 0 0 127 0" result="hardAlpha"/>
<feOffset dy="4"/>
<feGaussianBlur stdDeviation="9.8"/>
<feComposite in2="hardAlpha" operator="arithmetic" k2="-1" k3="1"/>
<feColorMatrix type="matrix" values="0 0 0 0 1 0 0 0 0 1 0 0 0 0 1 0 0 0 0.32 0"/>
<feBlend mode="normal" in2="shape" result="effect1_innerShadow_0_1"/>
</filter>
<filter id="filter1_i_0_1" x="1001.27" y="968.1" width="2109.46" height="932.9" filterUnits="userSpaceOnUse" color-interpolation-filters="sRGB">
<feFlood flood-opacity="0" result="BackgroundImageFix"/>
<feBlend mode="normal" in="SourceGraphic" in2="BackgroundImageFix" result="shape"/>
<feColorMatrix in="SourceAlpha" type="matrix" values="0 0 0 0 0 0 0 0 0 0 0 0 0 0 0 0 0 0 127 0" result="hardAlpha"/>
<feOffset dy="4"/>
<feGaussianBlur stdDeviation="9.8"/>
<feComposite in2="hardAlpha" operator="arithmetic" k2="-1" k3="1"/>
<feColorMatrix type="matrix" values="0 0 0 0 1 0 0 0 0 1 0 0 0 0 1 0 0 0 0.32 0"/>
<feBlend mode="normal" in2="shape" result="effect1_innerShadow_0_1"/>
</filter>
</defs>
</svg>


